<?xml version="1.0" encoding="UTF-8" standalone="no"?>
<!-- Created with Inkscape (http://www.inkscape.org/) -->

<svg
   version="1.1"
   id="svg870"
   width="28.959999in"
   height="27.966in"
   viewBox="0 0 2780.16 2684.736"
   sodipodi:docname="hand.svg"
   inkscape:version="1.1.2 (0a00cf5339, 2022-02-04)"
   xmlns:inkscape="http://www.inkscape.org/namespaces/inkscape"
   xmlns:sodipodi="http://sodipodi.sourceforge.net/DTD/sodipodi-0.dtd"
   xmlns="http://www.w3.org/2000/svg"
   xmlns:svg="http://www.w3.org/2000/svg">
  <defs
     id="defs874" />
  <sodipodi:namedview
     id="namedview872"
     pagecolor="#ffffff"
     bordercolor="#000000"
     borderopacity="0.25"
     inkscape:pageshadow="2"
     inkscape:pageopacity="0.0"
     inkscape:pagecheckerboard="0"
     showgrid="false"
     units="in"
     inkscape:document-units="in"
     inkscape:zoom="0.99428246"
     inkscape:cx="1206.9005"
     inkscape:cy="1122.9203"
     inkscape:window-width="1858"
     inkscape:window-height="1136"
     inkscape:window-x="0"
     inkscape:window-y="0"
     inkscape:window-maximized="1"
     inkscape:current-layer="g876"
     showguides="true"
     objecttolerance="1"
     gridtolerance="1"
     guidetolerance="1" />
  <g
     inkscape:groupmode="layer"
     inkscape:label="Image"
     id="g876">
    <path
       style="fill:none;stroke-width:0.661888;stroke:#000000;stroke-opacity:1"
       d="m 1273.784,1373.9503 c -5.6426,-0.6752 -13.0889,-1.5628 -16.5472,-1.9728 -7.9469,-0.9418 -25.5428,-6.7054 -34.6069,-11.3355 -10.0032,-5.1101 -18.5587,-11.4655 -28.8323,-21.4181 -8.4085,-8.1459 -18.889,-22.5102 -21.8711,-29.9766 -0.6972,-1.7456 -2.7512,-6.4502 -4.5644,-10.4545 -4.3681,-9.6478 -6.1611,-15.2263 -8.7223,-27.1376 -2.9004,-13.4894 -5.978,-25.3052 -9.6652,-37.1078 -1.6989,-5.4375 -4.6746,-15.3966 -6.6132,-22.1312 -3.6311,-12.6161 -9.0611,-26.6246 -13.4692,-34.7492 -1.3826,-2.5484 -4.7084,-8.5052 -7.3906,-13.2378 -6.0302,-10.6396 -9.4468,-17.1694 -20.4421,-39.0687 -7.4864,-14.9103 -8.9152,-18.2791 -10.6269,-25.0569 -1.0877,-4.3069 -1.9776,-9.2324 -1.9776,-10.9456 0,-4.3756 2.032,-6.1666 9.0043,-7.9368 15.1025,-3.8342 25.5992,-3.4237 35.2216,1.3774 12.5692,6.2715 21.8074,13.7718 28.1977,22.8933 4.2682,6.0924 17.0238,25.2952 22.0047,33.1267 7.5313,11.8418 17.8927,23.9559 20.49,23.9559 1.0375,0 1.4563,-2.6256 2.2172,-13.8998 0.3564,-5.2785 0.9604,-11.2355 1.3424,-13.2378 0.382,-2.0021 0.9899,-8.7849 1.3508,-15.0727 0.5758,-10.0334 0.4928,-12.8147 -0.6783,-22.7272 -1.0127,-8.5734 -1.3361,-15.4666 -1.3419,-28.6118 -0.011,-9.81 -0.4221,-21.7929 -0.963,-27.6414 -0.6959,-7.522 -0.9526,-20.0976 -0.9453,-46.33226 0.011,-19.80438 0,-37.79511 -0.011,-39.97936 -0.1613,-31.45555 0.098,-39.22845 1.6128,-48.33341 1.7244,-10.36722 3.3273,-15.29941 6.2739,-19.30616 2.0529,-2.79153 6.4438,-5.33967 10.2716,-5.96084 4.1968,-0.68103 11.8628,4.71185 17.3915,12.23443 4.4083,5.99796 4.2765,5.69688 9.1409,20.86445 5.9848,18.66072 7.3754,24.78246 8.8999,39.17775 0.7325,6.91675 1.6066,13.91622 1.9424,15.5544 0.336,1.63818 0.6239,4.69512 0.6397,6.79324 0.015,2.09805 0.7592,8.20394 1.6521,13.5687 1.001,6.0163 1.8834,15.09986 2.3026,23.70416 0.7899,16.2162 2.7851,29.6921 6.619,44.7071 3.9509,15.4736 7.1588,23.2744 8.957,21.7821 0.9192,-0.7629 1.9114,-6.0676 3.346,-17.8908 2.1908,-18.0536 3.2002,-24.6731 5.6518,-37.0659 1.4044,-7.0986 2.8624,-16.0341 3.24,-19.8566 0.3777,-3.8224 1.1196,-10.67296 1.6488,-15.22336 0.5293,-4.55055 1.2956,-11.55004 1.703,-15.55446 0.4073,-4.00443 1.6034,-11.74855 2.6577,-17.20913 1.0546,-5.46059 2.6702,-15.88533 3.5904,-23.16612 0.9204,-7.28078 2.6002,-16.9609 3.7332,-21.51139 1.1328,-4.5505 2.1381,-9.76288 2.2339,-11.58306 0.5354,-10.17284 6.1979,-23.92458 12.5159,-30.39588 6.0579,-6.20473 13.822,-9.50943 18.14,-7.7208 5.6413,2.33654 14.9466,17.03809 17.7744,28.08085 1.8394,7.18288 1.978,33.29911 0.2801,52.72767 -1.5022,17.18967 -3.44,35.07371 -4.9841,46.00132 -1.2695,8.98486 -4.0687,33.87776 -4.9494,44.01556 -0.3953,4.5504 -1.0043,11.1032 -1.3533,14.5616 -1.3135,13.0166 -0.5155,39.4712 1.2439,41.2304 1.7013,1.7014 6.7482,-5.2923 12.4702,-17.2796 4.249,-8.902 6.967,-16.2567 11.4745,-31.0493 1.8392,-6.036 5.9833,-17.5563 9.2091,-25.6006 3.2259,-8.0443 7.9825,-20.09816 10.5703,-26.78656 2.5876,-6.68827 6.3178,-15.64583 8.2893,-19.90569 1.9712,-4.25985 4.2186,-9.36122 4.994,-11.3365 3.2675,-8.32273 10.5713,-22.29514 13.2179,-25.28622 3.3376,-3.7717 9.8005,-8.50507 14.1704,-10.37822 13.8043,-5.91716 23.6158,8.57954 21.5908,31.90061 -1.2436,14.32235 -8.0156,41.92772 -16.6822,68.00368 -1.8731,5.6359 -4.38,14.8693 -5.5706,20.5185 -4.4927,21.314 -5.5873,25.8084 -9.1119,37.4093 -5.5835,18.3769 -7.7054,28.4387 -7.6698,36.3688 0.017,3.7466 0.3881,7.4933 0.8499,8.5748 l 0.82,1.921 5.2453,-4.2375 c 6.1811,-4.9935 12.9113,-13.9131 25.1259,-33.2994 4.3367,-6.8828 9.7615,-15.0739 12.0549,-18.2018 2.2934,-3.1281 8.5319,-12.2402 13.8635,-20.2491 14.1386,-21.2389 21.0212,-27.4684 30.3478,-27.4684 5.9179,0 8.0184,1.3819 11.1663,7.3463 l 2.5852,4.8986 -0.3645,8.9355 c -0.4491,11.0064 -2.2957,21.7708 -5.4501,31.7708 -2.512,7.9634 -6.2862,17.0265 -8.2758,19.8726 -0.6425,0.919 -2.8579,5.6846 -4.9234,10.5903 -6.7797,16.103 -12.7057,28.228 -21.7523,44.506 -10.6563,19.1749 -12.5456,23.0515 -17.3327,35.5666 -2.0191,5.2785 -4.2238,10.7887 -4.899,12.2449 -0.6752,1.4562 -1.889,5.7749 -2.6972,9.5974 -0.8082,3.8224 -2.4516,10.8218 -3.6521,15.5544 -1.2004,4.7326 -3.407,14.6832 -4.9037,22.1128 -1.4966,7.4297 -3.4378,15.6205 -4.3137,18.202 -0.8759,2.5815 -2.6974,8.7146 -4.0478,13.6292 -5.4545,19.8521 -11.3176,31.0969 -27.7815,53.2821 -6.6062,8.9017 -17.445,19.0699 -26.7749,25.1179 -15.9618,10.347 -25.4318,14.5733 -38.0588,16.9849 -10.2226,1.9521 -52.1266,2.3441 -66.5197,0.6222 z m 64.5343,-11.203 c 9.1446,-1.7298 16.3765,-4.6585 26.5795,-10.7641 10.462,-6.2603 13.5209,-8.5252 20.9538,-15.5145 6.4165,-6.0333 9.7973,-10.0205 15.3896,-18.1502 9.3451,-13.5854 11.7831,-17.6364 14.6415,-24.3283 8.6179,-20.1752 10.5072,-31.8271 7.849,-48.4058 l -1.2087,-7.5378 -1.8019,5.3701 c -4.6324,13.8064 -13.9591,22.978 -26.6521,26.2083 -4.9003,1.2471 -9.0703,0.7944 -16.9947,-1.8447 -5.2959,-1.7636 -6.8471,-2.6312 -10.1409,-5.6719 -6.0945,-5.6263 -8.5575,-11.8073 -9.3833,-23.5477 -0.7472,-10.6246 1.4724,-20.0476 8.2634,-35.08 5.397,-11.947 6.7481,-15.8429 8.5351,-24.6124 2.3575,-11.5681 1.7794,-18.953 -2.3895,-30.5237 l -1.7413,-4.8323 -1.9114,3.9827 c -2.9471,6.14 -10.1088,11.3332 -21.0907,15.2932 -7.0499,2.542 -12.5701,6.9494 -13.9041,11.1008 -1.2232,3.8072 -4.0499,9.5776 -5.4977,11.2242 -2.4372,2.7715 -7.0275,1.7166 -8.29,-1.9049 -1.878,-5.3878 -0.5202,-13.0171 4.4028,-24.7362 2.2283,-5.3045 6.9203,-23.9998 8.4583,-33.7028 1.2007,-7.574 0.6062,-16.9449 -1.8087,-28.5131 -1.6275,-7.7973 -2.6717,-10.4085 -6.6345,-16.5909 -4.0049,-6.248 -8.379,-10.4576 -13.3137,-12.8127 -3.6883,-1.7603 -10.2327,-3.718 -10.7383,-3.2124 -0.1069,0.1069 0.4142,1.9785 1.1579,4.1594 4.62,13.5485 0.4998,23.4066 -14.026,33.5575 -6.2648,4.3782 -18.4687,17.2512 -21.8613,23.0606 -3.8485,6.5892 -7.3904,14.3447 -9.8096,21.4786 -1.9823,5.8458 -3.5979,16.1227 -5.4103,34.4181 -0.8623,8.7036 -3.412,21.1873 -4.9246,24.1124 -1.6264,3.1451 -6.0675,7.2936 -9.3733,8.7559 -4.1353,1.8293 -8.5778,1.7162 -12.598,-0.321 -4.1544,-2.1053 -10.0233,-6.8656 -12.824,-10.4018 -2.4135,-3.0473 -6.5403,-12.1907 -8.9619,-19.8567 -1.7985,-5.6932 -4.1683,-9.3071 -9.4143,-14.3569 -7.4546,-7.1755 -12.0109,-9.223 -18.8855,-8.487 -3.341,0.3579 -4.7477,0.8546 -6.1814,2.1835 -1.1081,1.0269 -1.5407,1.8253 -1.0735,1.981 0.4303,0.1436 2.592,1.4305 4.8037,2.8599 5.1346,3.3188 11.7612,10.0419 14.0338,14.2386 6.1089,11.2808 5.9751,30.3948 -0.3179,45.3775 -1.2802,3.0482 -3.5459,8.4258 -5.0348,11.9505 -4.7395,11.2195 -7.4236,21.6351 -7.8155,30.3266 -0.2206,4.8926 -0.064,8.5572 0.4352,10.2591 0.4281,1.4562 1.199,4.1869 1.7128,6.0681 0.9389,3.4382 6.4637,16.1217 10.4316,23.9487 7.4,14.5971 26.9935,33.6094 43.1934,41.9119 7.4048,3.7951 19.3945,8.0064 26.7811,9.4065 3.0942,0.5866 7.0536,1.3958 8.7987,1.7985 8.2194,1.897 20.1746,2.4914 44.4833,2.2114 20.402,-0.2347 25.5946,-0.491 31.1089,-1.5338 z m 57.4534,-105.2152 c 7.2376,-3.2818 11.6204,-8.357 14.852,-17.1982 3.041,-8.3207 2.7628,-24.8503 -0.527,-31.2986 -1.6509,-3.2363 -1.6279,-5.2742 0.086,-7.4511 1.5892,-2.0203 4.7477,-2.3509 7.0507,-0.7379 2.8885,2.0232 10.2822,16.6009 13.2058,26.0369 1.0277,3.3175 2.0176,6.0336 2.1996,6.0359 0.342,0.011 2.3959,-8.2675 6.3234,-25.4672 2.1517,-9.4229 5.4604,-19.6152 7.3057,-22.5041 0.465,-0.7281 2.1706,-4.763 3.7903,-8.9665 2.7018,-7.0122 5.2428,-12.0422 15.0313,-29.7541 10.6589,-19.2865 14.1905,-26.4184 19.5024,-39.3824 1.3424,-3.2764 4.7746,-10.7227 7.6272,-16.5472 7.6784,-15.6784 12.3379,-32.46 13.0482,-46.9941 0.2967,-6.0733 0.2042,-6.7691 -1.1204,-8.4392 -2.4164,-3.0463 -4.5684,-2.5049 -9.8507,2.4781 -3.5492,3.3482 -6.4379,7.2614 -13.0695,17.7056 -4.6822,7.374 -10.4054,15.8929 -12.7178,18.9308 -2.3127,3.038 -7.3392,10.4841 -11.1703,16.5471 -13.4862,21.3435 -21.1128,32.1539 -25.8059,36.5797 -4.531,4.2727 -11.4088,9.1141 -13.9503,9.8199 -7.0479,1.9573 -10.3382,-0.1578 -13.2394,-8.5105 -1.2463,-3.5888 -1.4892,-5.6829 -1.4892,-12.8429 0,-7.4624 0.2968,-9.818 2.3239,-18.4468 1.2781,-5.4408 3.6876,-14.2662 5.3547,-19.6119 1.6668,-5.3462 3.7147,-12.6986 4.5508,-16.3389 2.0686,-9.007 5.9711,-23.5608 8.7854,-32.7635 1.2803,-4.1866 2.8688,-9.3989 3.5299,-11.5832 0.6611,-2.1841 2.0956,-6.5472 3.1879,-9.6956 1.0922,-3.1483 2.7738,-9.85 3.7372,-14.89246 0.963,-5.04246 3.1178,-15.12521 4.7882,-22.406 2.7972,-12.19239 3.0377,-13.94342 3.0478,-22.17328 0.011,-7.72113 -0.191,-9.44647 -1.4758,-12.69542 -1.979,-5.00456 -3.9524,-5.57893 -8.7002,-2.53233 -7.6627,4.91716 -9.401,7.56917 -17.5734,26.81081 -2.6283,6.18866 -6.5676,15.42202 -8.7537,20.51856 -2.1859,5.09652 -5.5333,13.28736 -7.4387,18.20182 -1.9055,4.9146 -5.7884,14.7609 -8.6289,21.881 -2.8402,7.1198 -6.6949,17.8425 -8.5657,23.8279 -7.9224,25.3466 -11.8443,34.5649 -20.2587,47.6177 -3.3123,5.1381 -4.1525,5.9249 -8.8331,8.2713 -2.9304,1.469 -4.1424,1.7286 -6.5378,1.4003 l -2.9405,-0.4029 0.3876,2.4808 c 0.2131,1.3646 0.5725,5.9064 0.7988,10.0928 0.4567,8.4533 -0.6914,16.8276 -4.2656,31.1088 -2.8575,11.4177 -2.8583,11.4226 -2.015,10.9012 0.411,-0.2541 3.6248,-1.5554 7.1418,-2.8925 12.7984,-4.8646 15.9952,-8.3276 15.9886,-17.3187 -0.011,-6.3315 -0.8149,-9.1214 -3.7739,-12.9981 -2.6767,-3.5065 -3.0541,-6.0755 -1.1943,-8.1303 1.5314,-1.6922 5.6282,-1.7877 7.4737,-0.1741 4.6086,4.0293 10.3128,11.3956 13.0814,16.893 7.611,15.1129 10.2284,24.3197 10.2296,35.985 0,12.9925 -2.6019,23.261 -10.297,40.6148 -5.8949,13.2937 -7.5621,19.6573 -7.5686,28.8872 -0.011,12.8347 3.1913,18.4961 12.2407,21.6555 6.3563,2.2189 9.9762,2.1872 15.0923,-0.1325 z m -223.6235,-30.2235 c 4.4558,-10.0169 6.3059,-17.7831 6.3072,-26.4756 0,-10.1324 -2.2606,-15.8174 -8.7265,-21.9326 -2.7639,-2.614 -4.4677,-3.6269 -7.5097,-4.4644 -2.1644,-0.5957 -5.0411,-1.387 -6.393,-1.7585 -2.7747,-0.7624 -4.4917,-2.7721 -4.4917,-5.2572 0,-2.2418 4.7015,-9.3299 8.1418,-12.2745 3.7056,-3.1718 11.3658,-6.933 14.1205,-6.933 1.2251,0 2.2276,-0.2577 2.2276,-0.5727 0,-0.315 -2.7552,-4.5627 -6.1226,-9.4397 -3.3673,-4.8767 -8.1744,-12.0906 -10.6823,-16.0306 -9.2741,-14.5698 -12.9615,-18.536 -23.9013,-25.7069 -9.1114,-5.9725 -13.0012,-7.3751 -20.5186,-7.3996 -5.1975,-0.016 -13.8467,1.1718 -15.3681,2.1118 -0.5716,0.3534 -0.4119,1.9101 0.6156,6.0018 1.3663,5.4404 3.9815,11.0396 14.4079,30.8484 2.6827,5.0965 6.265,11.9472 7.961,15.2235 1.6958,3.2763 5.2754,9.829 7.9547,14.5616 12.7954,22.602 16.6494,31.5754 23.4522,54.6058 2.6347,8.9189 6.0837,20.4651 7.6645,25.6582 l 2.8745,9.4421 2.0794,-5.8016 c 1.1437,-3.1909 3.8018,-9.6738 5.9069,-14.4063 z m 61.2287,-25.9791 c 2.2116,-2.2314 2.6048,-3.184 3.8939,-9.4319 0.7885,-3.8223 1.8805,-11.2893 2.4267,-16.5931 2.4348,-23.6454 3.3076,-28.025 7.8379,-39.3366 6.2937,-15.7138 12.2092,-24.2698 25.512,-36.9003 4.8877,-4.6406 5.8039,-5.7915 4.6103,-5.7915 -1.9789,0 -7.0166,-5.4107 -9.666,-10.3814 -2.6097,-4.8962 -4.9299,-11.9456 -7.8024,-23.7059 -4.1383,-16.9425 -5.6016,-27.5449 -6.2577,-45.3394 -0.447,-12.1243 -1.0209,-18.69066 -2.274,-26.02176 -0.9218,-5.39301 -1.8348,-10.06215 -2.0287,-10.37602 -0.194,-0.3138 -0.8007,-6.17715 -1.3482,-13.02966 -1.1803,-14.77246 -2.7797,-24.27368 -5.8297,-34.6325 -1.2325,-4.18645 -3.3691,-11.48378 -4.7481,-16.2163 -2.0344,-6.98239 -3.1236,-9.503 -5.7772,-13.37042 -4.6014,-6.70579 -8.2824,-9.27584 -10.9016,-7.61126 -1.3919,0.88461 -3.4161,6.30424 -4.5151,12.08947 -0.8103,4.26475 -1.1924,12.77089 -1.6189,36.02967 -0.5876,32.05636 0.1903,94.55568 1.277,102.59288 0.3446,2.5482 0.6418,12.7905 0.6604,22.7603 0.025,14.1528 0.3404,20.6833 1.4309,29.7851 1.5739,13.1336 1.4234,27.3798 -0.4166,39.4572 -0.5547,3.6403 -1.303,10.9693 -1.663,16.2864 -0.7022,10.3733 -2.383,18.2366 -4.5148,21.1198 -1.0685,1.4451 -1.212,2.2234 -0.7448,4.0345 3.6091,13.9862 5.9242,18.6828 11.1933,22.7083 6.877,5.2541 7.7679,5.4023 11.2644,1.8744 z m 59.4946,-124.2697 c -0.011,-1.9176 -0.023,-1.9289 -0.5084,-0.3309 -0.276,0.9101 -0.6884,2.8461 -0.9162,4.3022 l -0.4144,2.6476 0.9227,-2.3166 c 0.5076,-1.2741 0.9199,-3.2102 0.9163,-4.3023 z m 40.973,-13.0724 c 0.021,-6.2796 0.3638,-14.247 0.7633,-17.7055 0.3993,-3.4584 1.0466,-10.011 1.4382,-14.5614 0.8651,-10.0467 3.6601,-34.9363 4.9431,-44.01567 5.2641,-37.25337 7.7907,-82.04455 5.2932,-93.83074 -1.1716,-5.5285 -6.8171,-17.37281 -9.4891,-19.9081 -2.3323,-2.21309 -3.1262,-1.96793 -7.9342,2.45031 -2.979,2.73745 -8.7428,13.1238 -8.7428,15.75463 0,0.65896 -0.7195,3.96734 -1.5988,7.35199 -2.0913,8.04843 -5.4777,27.19437 -5.9974,33.90692 -0.6548,8.45749 -1.6053,15.18858 -3.6453,25.81368 -1.0484,5.46058 -2.2483,13.35362 -2.6667,17.54006 -0.4185,4.18646 -1.1966,11.33486 -1.7294,15.88526 -0.5326,4.55056 -1.2514,11.23396 -1.5973,14.85216 -0.3458,3.6182 -1.6895,11.8091 -2.9861,18.202 -2.8417,14.0112 -4.4858,25.2536 -3.7878,25.9007 0.2814,0.261 3.1924,1.1254 6.4687,1.9208 3.2764,0.7953 8.7867,2.7998 12.2451,4.4547 5.2039,2.4899 7.1619,3.8932 11.3586,8.1406 2.789,2.8226 5.5518,6.0621 6.1395,7.1985 0.5878,1.1368 1.1631,2.0668 1.2784,2.0668 0.1155,0 0.2265,-5.1381 0.2468,-11.4177 z"
       id="path1187" />
  </g>
</svg>
