<?xml version="1.0" encoding="UTF-8" standalone="no"?>
<!-- Created with Inkscape (http://www.inkscape.org/) -->

<svg
   version="1.1"
   id="svg870"
   width="28.959999in"
   height="27.966in"
   viewBox="0 0 2780.16 2684.736"
   sodipodi:docname="phoenix_base.svg"
   inkscape:version="1.1.2 (0a00cf5339, 2022-02-04)"
   xmlns:inkscape="http://www.inkscape.org/namespaces/inkscape"
   xmlns:sodipodi="http://sodipodi.sourceforge.net/DTD/sodipodi-0.dtd"
   xmlns="http://www.w3.org/2000/svg"
   xmlns:svg="http://www.w3.org/2000/svg">
  <defs
     id="defs874" />
  <sodipodi:namedview
     id="namedview872"
     pagecolor="#ffffff"
     bordercolor="#000000"
     borderopacity="0.25"
     inkscape:pageshadow="2"
     inkscape:pageopacity="0.0"
     inkscape:pagecheckerboard="0"
     showgrid="false"
     units="in"
     inkscape:document-units="in"
     inkscape:zoom="3.9771298"
     inkscape:cx="1579.531"
     inkscape:cy="882.16884"
     inkscape:window-width="1858"
     inkscape:window-height="1136"
     inkscape:window-x="0"
     inkscape:window-y="0"
     inkscape:window-maximized="1"
     inkscape:current-layer="g876"
     showguides="true"
     objecttolerance="1"
     gridtolerance="1"
     guidetolerance="1" />
  <g
     inkscape:groupmode="layer"
     inkscape:label="Image"
     id="g876">
    <path
       style="fill:none;stroke-width:0.661869;stroke:#000000;stroke-opacity:1"
       d="m 1287.9597,1375.0618 c -15.4297,-0.8277 -28.7829,-3.4647 -55.5745,-10.9753 -7.3663,-2.065 -21.1173,-8.6495 -26.8368,-12.8505 -4.3935,-3.227 -13.727,-12.4748 -17.9935,-17.8283 -4.1813,-5.2466 -11.4778,-17.2665 -16.2703,-26.8029 -5.4718,-10.8881 -10.7694,-26.5827 -12.7348,-37.7282 -1.6057,-9.1059 -2.7335,-14.2655 -4.5551,-20.841 -0.7563,-2.73 -1.8675,-7.0482 -2.4693,-9.5961 -3.7121,-15.715 -5.6067,-21.1603 -15.7085,-45.1478 -4.7137,-11.1932 -7.9826,-17.8769 -9.9436,-20.331 l -1.555,-1.9459 -6.548,1.4467 c -7.8514,1.7347 -12.6084,2.3045 -34.6805,4.1538 -18.7983,1.5749 -37.7314,1.4523 -51.3002,-0.3323 -12.7215,-1.6731 -40.94884,-8.8449 -43.85345,-11.1419 -0.9628,-0.7613 -1.1017,-2.8919 -0.2239,-3.4343 0.332,-0.2051 3.53411,-0.9695 7.11581,-1.6987 15.90654,-3.2386 43.10524,-11.4222 60.12934,-18.092 9.3229,-3.6525 34.7523,-16.061 40.821,-19.919 l 3.7525,-2.3855 -2.7596,-5.2658 c -1.5177,-2.8961 -3.0122,-5.2707 -3.321,-5.2769 -0.3088,-0.01 -4.2392,1.4715 -8.734,3.2835 -15.3816,6.2009 -37.6702,13.3104 -57.8913,18.4659 -23.4178,5.9705 -30.63114,7.0572 -60.23645,9.0742 -24.50756,1.6698 -43.29258,0.52 -60.23635,-3.6869 -4.18676,-1.0395 -9.84633,-2.2222 -12.57683,-2.6282 -6.39094,-0.9502 -28.66928,-6.722 -36.19015,-9.376 -16.66026,-5.8791 -45.64886,-19.7032 -47.51315,-22.6581 -1.42124,-2.2527 0.29999,-2.5374 10.85573,-1.7961 17.92701,1.259 35.35439,0.6209 53.98233,-1.9767 13.12915,-1.8309 58.82739,-11.2242 72.61442,-14.9259 18.4351,-4.9499 22.4909,-6.2893 35.4467,-11.7062 13.48881,-5.6398 21.40085,-10.1985 29.74085,-17.1362 1.8856,-1.5685 8.5133,-6.9681 14.7281,-11.9991 6.2149,-5.0309 11.2997,-9.2722 11.2997,-9.4249 0,-0.1527 -2.0106,0.491 -4.4681,1.4305 -4.6143,1.7643 -17.8666,6.6929 -28.2978,10.5242 -3.2766,1.2035 -11.46814,4.3336 -18.20335,6.9557 -18.2049,7.0875 -23.4511,8.9372 -38.7234,13.6525 -37.89427,11.6998 -62.24182,15.1973 -101.79734,14.6229 -23.38668,-0.3395 -32.88503,-1.2301 -58.39177,-5.4752 -23.39383,-3.8933 -49.85614,-11.9082 -69.21135,-20.9626 -16.12145,-7.5416 -35.5831,-20.344 -45.49423,-29.9273 -6.36348,-6.1529 -6.78183,-6.7171 -6.3842,-8.6087 0.23399,-1.1133 0.67365,-2.2888 0.97695,-2.6122 0.32071,-0.3419 7.01403,-0.1335 15.99555,0.498 85.89167,6.0398 181.98063,-0.5385 246.10307,-16.84806 21.30222,-5.4183 43.48072,-14.1525 52.62202,-20.7233 l 3.3075,-2.3775 h -3.1347 c -2.8326,0 -7.1166,0.3988 -28.6341,2.6658 -3.6406,0.3835 -10.64063,0.9815 -15.55553,1.3288 -34.21447,2.4181 -39.43365,2.5476 -110.21274,2.7376 -64.081,0.172 -72.72406,0.072 -83.40424,-0.9678 -6.55319,-0.6379 -18.17021,-1.7647 -25.81559,-2.5041 -32.48589,-3.1418 -51.49795,-8.8091 -96.97398,-28.9067 -24.08081,-10.6423 -46.99403,-23.8054 -58.45058,-33.5786 -8.22375,-7.0155 -23.45837,-24.6545 -29.8499,-34.56106 -8.21702,-12.736 -20.5646,-42.55853 -19.14841,-46.24832 0.60931,-1.58753 2.65129,-1.0385 7.31007,1.96547 24.34312,15.69616 81.07179,31.96603 156.07261,44.76192 28.19143,4.80969 52.928,8.16599 89.86648,12.19299 11.56367,1.2607 21.37823,2.5105 21.81014,2.7773 1.07559,0.6647 6.93897,0.7443 62.29178,0.8471 40.1796,0.075 49.92757,-0.089 58.58155,-0.9822 5.70982,-0.5895 10.481,-1.1674 10.60267,-1.2842 0.12166,-0.1169 -1.51664,-0.4127 -3.64066,-0.6573 -8.0877,-0.9317 -25.80422,-3.6604 -28.02264,-4.3161 -2.39079,-0.7067 -15.19426,-3.51423 -26.8085,-5.87857 -3.64066,-0.74115 -47.72576,-9.10497 -97.96689,-18.58617 -50.24112,-9.4812 -96.19268,-18.29127 -102.11465,-19.57788 -55.16001,-11.98419 -105.86399,-35.37171 -146.44321,-67.54799 -10.82353,-8.58223 -30.75765,-28.41877 -38.19682,-38.00984 -15.02584,-19.37231 -25.22092,-40.00658 -29.36211,-59.42732 -2.57069,-12.05561 -2.33336,-37.85051 0.35775,-38.88297 0.45519,-0.17464 4.51699,1.74126 9.02622,4.25754 25.96162,14.48733 48.31286,25.96249 74.06148,38.02328 103.52975,48.49387 222.96038,88.02917 313.42783,103.75449 4.36879,0.75939 9.11456,1.6867 10.5462,2.06067 4.2415,1.10802 23.12157,4.35743 39.76112,6.84319 3.64066,0.54388 10.34279,1.30711 14.89361,1.69607 4.55083,0.38897 8.86998,0.84844 9.59811,1.02106 3.44446,0.81654 26.66043,1.32528 39.71633,0.87029 17.237,-0.6007 50.21955,-3.43388 61.89125,-5.31641 26.1394,-4.21605 51.3479,-10.845 61.2414,-16.1043 1.7401,-0.92504 3.502,-1.68189 3.9154,-1.68189 0.553,0 0.5178,1.96769 -0.133,7.44524 -1.187,9.99092 -0.7132,40.51885 0.7731,49.80039 6.1219,38.23148 18.6647,66.98882 39.3813,90.29032 18.7197,21.0557 44.7991,32.7265 68.9765,30.868 l 6.3534,-0.4884 0.3949,-13.3472 c 0.7861,-26.5669 5.1873,-44.9695 12.7591,-53.3488 3.2323,-3.57705 5.4299,-4.66988 9.3906,-4.66988 10.2538,0 20.0535,15.67238 26.6804,42.66948 1.0699,4.3587 1.9454,8.4536 1.9454,9.0997 0,0.6461 0.2351,1.1748 0.5225,1.1748 1.025,0 10.1385,-8.795 13.098,-12.6402 24.5437,-31.8897 7.8783,-66.86079 -31.8692,-66.87495 -11.83,-0.007 -22.4083,2.62185 -33.6355,8.35005 -3.2336,1.64987 -6.4422,2.99974 -7.13,2.99974 -3.8039,0 -2.8298,-7.88467 2.2238,-17.99908 7.3663,-14.74324 20.21,-28.05844 31.433,-32.587 9.4232,-3.80224 20.8106,-4.65629 28.0051,-2.10035 2.9086,1.03333 3.0069,1.02334 4.1776,-0.42686 3.1042,-3.84532 11.1123,-11.49839 14.6876,-14.03639 8.3833,-5.95099 18.4463,-10.50942 30.2851,-13.71878 4.518,-1.2248 7.0579,-1.4686 14.7268,-1.41356 5.0969,0.0366 12.6926,0.52925 16.8794,1.0948 4.1867,0.56555 9.6974,1.21519 12.2458,1.44365 2.5485,0.22845 11.0379,1.31755 18.8653,2.42022 12.5176,1.76338 15.5073,1.96642 24.8227,1.68578 9.4622,-0.28506 11.3208,-0.54132 17.4386,-2.40446 9.1171,-2.77656 16.9282,-6.79376 24.941,-12.8269 5.7193,-4.30632 15.9941,-14.15191 19.7072,-18.88411 1.955,-2.4915 3.2898,-1.58188 4.2211,2.87646 1.6221,7.76608 1.0214,17.69348 -1.5615,25.80617 -2.5681,8.06575 -9.3356,18.7724 -15.3253,24.24548 -9.7491,8.90822 -27.8795,20.99347 -42.452,28.29735 -5.8428,2.92846 -12.3865,6.52157 -14.5415,7.98467 -3.9118,2.65593 -3.92,2.66844 -5.0974,7.79619 -1.5791,6.87722 -1.5538,22.16326 0.049,29.6226 3.3731,15.69778 10.2086,28.89828 20.7897,40.14848 4.5178,4.8036 12.6154,11.8028 13.6551,11.8028 0.2498,0 2.6488,-2.3323 5.3309,-5.183 12.4438,-13.225 24.8895,-12.8975 30.0116,0.7897 1.6329,4.3634 2.975,14.2734 2.3966,17.6962 -0.2272,1.3445 -0.1279,2.6206 0.2206,2.836 0.666,0.4115 11.1064,1.5073 20.6512,2.1674 14.5436,1.006 32.787,-4.4986 47.119,-14.2171 28.1578,-19.0939 49.2993,-55.68635 57.0399,-98.72653 2.5885,-14.39314 3.2409,-23.51161 2.9642,-41.43383 l -0.2496,-16.17327 3.9817,0.42943 c 2.1899,0.23618 6.0668,1.11441 8.6152,1.95161 11.7112,3.84728 34.6804,7.54857 57.5887,9.27994 15.1718,1.14666 33.0864,1.00167 48.3215,-0.39108 4.0047,-0.36611 16.9621,-0.95302 28.7943,-1.30424 11.8321,-0.35123 26.2789,-0.94979 32.104,-1.33014 34.1917,-2.23255 40.7586,-2.78656 50.9392,-4.29744 113.9433,-16.9101 288.9157,-80.452 404.1978,-146.78604 3.2161,-1.85058 3.6973,-1.37361 4.5474,4.50777 1.6587,11.47585 0.3832,28.71458 -3.0012,40.56117 -19.1302,66.96196 -98.5812,128.92996 -198.1963,154.58348 -13.7132,3.5315 -18.0779,4.39091 -122.7895,24.17785 -112.369,21.23389 -130.1895,24.53942 -132.2351,24.52782 -1.99,-0.011 -21.1026,4.1008 -20.741,4.4624 0.5056,0.5054 16.9274,2.1509 28.8626,2.892 14.3311,0.8899 78.6433,0.4054 84.3972,-0.6359 7.9853,-1.445 18.7817,-2.6986 29.1252,-3.3815 5.8251,-0.3847 14.4634,-1.131 19.1963,-1.6586 4.7328,-0.5275 12.9243,-1.4361 18.2033,-2.019 5.2789,-0.5829 17.0449,-2.095 26.1465,-3.36014 92.3724,-12.84016 167.1583,-32.2365 196.3005,-50.91228 4.7743,-3.05963 6.8477,-3.62276 7.4605,-2.02636 1.4162,3.68979 -10.9314,33.51232 -19.1485,46.24832 -6.3374,9.82266 -21.6951,27.60446 -29.8487,34.56006 -13.7622,11.7401 -37.4078,24.6696 -72.3524,39.5626 -35.3206,15.0532 -53.4288,20.0517 -83.0733,22.9313 -40.7333,3.9567 -31.9,3.6743 -108.8889,3.481 -39.1371,-0.098 -75.9243,-0.4658 -81.7494,-0.8169 -23.256,-1.4017 -39.4083,-2.7239 -60.7402,-4.972 -5.01,-0.528 -10.5196,-0.96 -12.2437,-0.96 h -3.1347 l 3.3075,2.3775 c 4.7784,3.4347 19.2469,10.2922 28.4613,13.4894 42.7275,14.82556 103.8782,23.63336 180.0719,25.93666 28.3837,0.858 61.2161,0.1828 90.1919,-1.8547 8.972,-0.6309 15.6686,-0.8396 15.9798,-0.498 0.2947,0.3234 0.7415,1.4575 0.9929,2.5201 0.4232,1.7883 -0.05,2.4326 -6.3684,8.6595 -4.9629,4.8916 -9.5547,8.5387 -16.8259,13.3646 -21.3973,14.2012 -35.9482,20.997 -62.482,29.181 -15.2021,4.6889 -19.8701,5.7922 -35.5737,8.4081 -24.9035,4.1482 -34.8599,5.0795 -58.1785,5.4417 -38.6933,0.6012 -62.9217,-2.7581 -98.8719,-13.709 -16.9627,-5.167 -22.9258,-7.2417 -42.695,-14.8544 -9.1016,-3.5048 -19.6761,-7.5422 -23.4988,-8.9719 -3.8227,-1.4297 -11.2606,-4.2327 -16.5286,-6.2288 -5.268,-1.9961 -9.6774,-3.5302 -9.7986,-3.409 -0.1211,0.1211 4.8804,4.349 11.1145,9.3953 6.234,5.0464 12.8774,10.4703 14.763,12.0533 13.9154,11.6819 34.1106,20.6219 64.3267,28.4762 18.9332,4.9214 20.4551,5.2556 49.9764,10.9739 21.3386,4.1332 23.9806,4.5395 38.7234,5.9546 12.444,1.1944 24.7966,1.2945 38.7577,0.314 10.5558,-0.7413 12.277,-0.4566 10.8558,1.7961 -1.8714,2.9661 -30.832,16.7682 -47.642,22.7054 -7.5663,2.6724 -29.5698,8.3648 -36.0613,9.3293 -2.7305,0.4057 -8.3901,1.5881 -12.5769,2.6276 -17.0271,4.2276 -35.6874,5.3684 -60.2364,3.6826 -29.6186,-2.0338 -36.7426,-3.1072 -60.2364,-9.0758 -19.6105,-4.9821 -43.0124,-12.4122 -56.9267,-18.0743 -3.8226,-1.5555 -9.0354,-3.5041 -11.5839,-4.3301 -4.3635,-1.4142 -11.9092,-4.6703 -24.7896,-10.697 -3.0763,-1.4394 -7.0523,-3.665 -8.8355,-4.9458 -1.7832,-1.2808 -3.3695,-2.2014 -3.5252,-2.0458 -0.346,0.3459 13.9022,14.1361 20.243,19.5924 14.3579,12.3548 44.4971,27.7306 73.834,37.6669 9.9626,3.3744 34.9594,10.274 43.5809,12.0294 3.5817,0.7292 6.7838,1.4936 7.1158,1.6987 0.8928,0.5517 0.7321,2.6733 -0.2652,3.5008 -2.7335,2.2682 -33.5784,9.963 -45.4669,11.3427 -13.4613,1.5621 -31.7001,1.5871 -49.6454,0.068 -28.0122,-2.3713 -37.5923,-3.8726 -51.6312,-8.0913 -13.8568,-4.164 -34.6714,-12.9682 -47.9905,-20.2991 l -5.9575,-3.279 -1.1211,1.4121 c -2.7923,3.5169 -15.2451,30.6949 -18.3842,40.1234 -4.7384,14.232 -7.6141,24.3603 -12.4965,44.0136 -4.8214,19.4077 -5.8596,23.9618 -8.3736,36.7298 -1.6761,8.5126 -9.2635,27.5474 -15.6959,39.3771 -4.2789,7.8693 -6.6039,11.5945 -15.0759,24.1557 -4.0945,6.0707 -16.9621,19.0104 -23.7418,23.8748 -5.5099,3.9534 -19.5936,11.2121 -28.5635,14.7216 -7.686,3.0072 -15.4442,4.9396 -22.8045,5.6803 -7.8979,0.7947 -31.1159,0.8072 -45.7051,0.024 z"
       id="path958" />
    <g
       id="g1634">
      <circle
         style="fill:none;stroke:#000000;stroke-width:0.283563;stroke-miterlimit:10;stroke-opacity:1"
         id="path1468"
         cx="1385.5677"
         cy="1233.8448"
         r="2.8582187" />
      <circle
         style="fill:none;stroke:#000000;stroke-width:0.283563;stroke-miterlimit:10;stroke-opacity:1"
         id="circle1630"
         cx="1395.5677"
         cy="1233.8448"
         r="2.8582187" />
    </g>
    <g
       id="g1640"
       transform="translate(-97.276892,-96.139532)">
      <circle
         style="fill:none;stroke:#000000;stroke-width:0.283563;stroke-miterlimit:10;stroke-opacity:1"
         id="circle1636"
         cx="1385.5677"
         cy="1233.8448"
         r="2.8582187" />
      <circle
         style="fill:none;stroke:#000000;stroke-width:0.283563;stroke-miterlimit:10;stroke-opacity:1"
         id="circle1638"
         cx="1395.5677"
         cy="1233.8448"
         r="2.8582187" />
    </g>
    <g
       id="g1646"
       transform="translate(-177.48156,16.225582)">
      <circle
         style="fill:none;stroke:#000000;stroke-width:0.283563;stroke-miterlimit:10;stroke-opacity:1"
         id="circle1642"
         cx="1385.5677"
         cy="1233.8448"
         r="2.8582187" />
      <circle
         style="fill:none;stroke:#000000;stroke-width:0.283563;stroke-miterlimit:10;stroke-opacity:1"
         id="circle1644"
         cx="1395.5677"
         cy="1233.8448"
         r="2.8582187" />
    </g>
    <circle
       style="fill:none;stroke:#000000;stroke-width:0.799269;stroke-miterlimit:10;stroke-opacity:1"
       id="path1764"
       cx="1060.2335"
       cy="816.80859"
       r="5.6003661" />
    <circle
       style="fill:none;stroke:#000000;stroke-width:0.799269;stroke-miterlimit:10;stroke-opacity:1"
       id="circle1846"
       cx="1610.2335"
       cy="816.80859"
       r="5.6003661" />
  </g>
</svg>
