<?xml version="1.0" encoding="UTF-8" standalone="no"?>
<!-- Created with Inkscape (http://www.inkscape.org/) -->

<svg
   width="27.966in"
   height="25.261999in"
   viewBox="0 0 710.3364 641.6548"
   version="1.1"
   id="svg5"
   inkscape:version="1.1.2 (0a00cf5339, 2022-02-04)"
   sodipodi:docname="tail.svg"
   xmlns:inkscape="http://www.inkscape.org/namespaces/inkscape"
   xmlns:sodipodi="http://sodipodi.sourceforge.net/DTD/sodipodi-0.dtd"
   xmlns="http://www.w3.org/2000/svg"
   xmlns:svg="http://www.w3.org/2000/svg">
  <sodipodi:namedview
     id="namedview7"
     pagecolor="#ffffff"
     bordercolor="#000000"
     borderopacity="0.25"
     inkscape:pageshadow="2"
     inkscape:pageopacity="0.0"
     inkscape:pagecheckerboard="0"
     inkscape:document-units="in"
     showgrid="false"
     units="in"
     inkscape:zoom="0.64052329"
     inkscape:cx="1244.2951"
     inkscape:cy="1473.0144"
     inkscape:window-width="1858"
     inkscape:window-height="1136"
     inkscape:window-x="0"
     inkscape:window-y="0"
     inkscape:window-maximized="1"
     inkscape:current-layer="layer1" />
  <defs
     id="defs2" />
  <g
     inkscape:label="Layer 1"
     inkscape:groupmode="layer"
     id="layer1">
    <path
       style="fill:none;stroke-width:0.175237;stroke:#000000;stroke-opacity:1"
       d="m 347.11632,451.36768 c -0.30545,-0.48191 -0.64878,-1.10241 -0.76297,-1.37887 -0.11417,-0.27649 -0.68453,-1.42615 -1.26746,-2.55481 -3.42541,-6.63231 -6.03473,-13.65941 -6.84121,-18.42391 -0.50874,-3.00553 -1.20253,-9.23317 -1.42573,-12.79766 -0.16402,-2.61957 -0.16245,-4.62961 0.007,-8.54269 0.12168,-2.81441 0.26484,-5.52765 0.31814,-6.02943 l 0.0969,-0.91232 -0.50878,0.74645 c -0.27983,0.41054 -2.08593,3.06044 -4.01356,5.88865 -3.87486,5.6852 -5.04344,7.24575 -7.47302,9.97961 -3.07964,3.46533 -9.09297,8.93678 -12.85251,11.69433 -3.41405,2.50413 -3.88878,2.6823 -4.97159,1.8659 -0.51345,-0.3871 -0.56958,-0.52269 -0.56958,-1.37567 0,-0.52042 0.41901,-3.36895 0.93114,-6.33006 0.51213,-2.96111 1.18345,-6.91406 1.49181,-8.78432 0.30838,-1.87027 0.93316,-5.04268 1.3884,-7.04979 0.45522,-2.00712 1.08141,-4.8063 1.39151,-6.22041 0.80216,-3.65796 2.16098,-8.00562 3.2143,-10.2844 0.2741,-0.59301 0.54458,-1.19017 0.60106,-1.32702 0.0565,-0.13685 -0.92901,0.65497 -2.18998,1.7596 -3.38934,2.96909 -5.32817,4.41204 -8.21667,6.11513 -6.55362,3.86409 -9.72681,5.26278 -16.11167,7.10186 -3.951,1.13804 -11.31689,2.51058 -16.23953,3.02602 -1.3413,0.14045 -2.60838,0.29044 -2.81574,0.33328 -0.59109,0.12219 -5.4306,0.57414 -6.14777,0.57414 -0.46554,0 -0.7948,-0.13466 -1.18565,-0.48488 -0.6009,-0.5384 -0.68789,-1.10197 -0.27939,-1.80979 0.3848,-0.66676 5.57766,-4.98921 8.79918,-7.3243 2.7598,-2.00041 3.67919,-2.83003 9.28606,-8.37936 6.58207,-6.51452 7.07019,-7.04158 11.06005,-11.94255 1.33692,-1.64218 3.31601,-4.03082 4.39803,-5.30807 2.57231,-3.03651 5.77678,-7.3859 7.56558,-10.2687 2.39091,-3.85313 5.54412,-9.5486 6.16168,-11.12949 0.5986,-1.53239 1.55653,-4.75519 1.44351,-4.85646 -0.0348,-0.0312 -1.40406,0.54492 -3.04286,1.28019 -1.63878,0.73529 -3.70953,1.60608 -4.60167,1.93509 -0.89213,0.32902 -2.62954,0.99613 -3.86092,1.48245 -2.10153,0.83 -3.83182,1.36365 -10.16449,3.13488 -4.97268,1.39085 -5.26619,1.44058 -5.95421,1.00877 -0.21467,-0.13471 -0.44478,-0.43947 -0.51137,-0.67723 -0.23381,-0.83468 1.81604,-3.54387 5.8286,-7.70344 4.29113,-4.44834 7.36702,-8.78018 11.07166,-15.59248 2.49544,-4.58874 3.56861,-6.8697 4.99474,-10.61616 0.60776,-1.59657 1.73186,-4.43427 2.498,-6.30601 1.46054,-3.56821 3.33134,-9.01801 3.55552,-10.35757 l 0.13159,-0.78619 -1.64359,1.53241 c -11.73826,10.94423 -36.75363,14.98767 -58.84713,9.51197 -2.85827,-0.70841 -3.32605,-0.90599 -3.80256,-1.60624 -0.43214,-0.63504 -0.45204,-0.97338 -0.0938,-1.59413 0.30736,-0.53257 0.70845,-0.69936 2.81145,-1.16914 2.4537,-0.54811 7.46199,-2.73386 11.9147,-5.19991 2.89356,-1.60252 4.25831,-2.52837 6.57193,-4.45838 2.27116,-1.89461 16.84272,-15.1091 18.62366,-16.88923 2.59865,-2.59747 7.15723,-7.53566 9.64698,-10.45028 1.28589,-1.50533 3.09659,-3.59539 4.02377,-4.64456 5.91459,-6.69279 7.65485,-8.85396 10.28042,-12.76683 2.51409,-3.74672 2.94619,-4.77106 8.78425,-20.82335 1.12813,-3.10191 2.12739,-5.74654 2.2206,-5.87699 0.14018,-0.19617 0.28108,-0.16085 0.8155,0.20439 0.35532,0.24285 0.96596,0.72059 1.35696,1.06165 1.32164,1.15288 4.03481,2.89115 5.52414,3.53918 0.92907,0.40426 2.37789,0.83106 3.88762,1.14525 1.32364,0.27546 3.28134,0.72797 4.35043,1.0056 1.0691,0.27763 2.70549,0.68512 3.63641,0.90556 1.94034,0.45945 7.60986,1.15348 8.46845,1.03665 0.3169,-0.0431 1.4509,-0.005 2.51999,0.085 1.35091,0.11359 2.9602,0.10458 5.27606,-0.0295 5.05366,-0.29264 6.40241,-0.52215 10.26429,-1.74657 3.53768,-1.12165 7.41103,-3.13398 9.85232,-5.11858 0.27138,-0.2206 0.96761,-0.64421 1.5472,-0.94134 0.79178,-0.4059 1.08961,-0.4883 1.19783,-0.33139 0.23802,0.34506 5.85314,17.4224 6.08198,18.49714 0.37849,1.77758 2.81997,7.24577 4.88177,10.93374 8.67511,15.51717 23.23275,30.83567 40.31706,42.42423 6.38323,4.32984 12.574,7.8404 18.62667,10.56246 3.63805,1.63614 4.47743,2.5761 3.26432,3.65549 -0.86979,0.77392 -5.80171,1.91166 -10.6326,2.45282 -3.05554,0.34229 -11.45998,0.3912 -14.59064,0.0849 -15.50395,-1.5168 -28.87199,-6.19055 -36.54473,-12.77679 l -1.09334,-0.93854 0.13216,0.91233 c 0.40684,2.80857 2.23216,8.63563 3.8191,12.19199 1.38235,3.09784 6.43251,13.00137 8.12035,15.92423 1.70663,2.95541 4.32808,7.10009 5.54171,8.76175 3.19436,4.37367 5.58476,7.18793 7.70122,9.06679 1.5846,1.40673 1.77142,1.63547 1.77142,2.16897 0,0.82525 -0.60856,1.31774 -1.62834,1.31774 -0.42426,0 -1.35518,0.0897 -2.06869,0.19934 -1.01733,0.1563 -1.74717,0.15491 -3.38197,-0.006 -6.65581,-0.65704 -13.99223,-3.07743 -21.30826,-7.02987 -1.00203,-0.54134 -1.85127,-0.95791 -1.8872,-0.92571 -0.1165,0.10438 0.81096,3.66207 1.30026,4.98782 0.66936,1.81353 1.58585,3.63052 4.23456,8.39512 3.16576,5.69474 5.28316,8.85434 9.18919,13.71226 0.95018,1.18176 2.88526,3.63339 4.30015,5.44809 3.89382,4.99412 4.75172,5.9683 9.94934,11.29776 0.97872,1.00356 2.47552,2.5711 3.32621,3.48343 2.25593,2.4194 3.47066,3.50583 6.67561,5.97049 1.57819,1.21364 4.0982,3.32085 5.60003,4.68267 2.90596,2.63506 3.05768,2.87049 2.52504,3.91796 -0.41688,0.81983 -1.16495,0.91102 -4.34178,0.52921 -15.16146,-1.82218 -25.25599,-4.39789 -32.35182,-8.25487 -6.42541,-3.49255 -9.5469,-5.68682 -13.88358,-9.7595 -2.03619,-1.91223 -2.32887,-2.13408 -2.0641,-1.56465 1.24672,2.68137 2.64024,7.5095 3.59071,12.44081 0.40444,2.09834 0.85711,4.33769 1.00591,4.97632 0.30028,1.28865 0.91674,5.21296 1.78494,11.3626 0.31556,2.2352 0.77763,5.43413 1.02685,7.10874 0.60397,4.05845 0.59901,4.82435 -0.035,5.39238 -0.58048,0.52014 -1.59072,0.58855 -2.2939,0.15533 -0.25175,-0.1551 -1.58235,-1.15569 -2.95691,-2.22354 -4.39476,-3.41417 -8.97697,-7.82953 -12.5942,-12.13556 -2.61855,-3.11718 -3.16387,-3.89573 -7.69685,-10.98846 l -3.49742,-5.47247 -0.008,7.96212 c -0.006,6.27856 -0.0711,8.41808 -0.30605,10.11852 -1.40362,10.15988 -1.87833,12.31011 -3.91848,17.74889 -1.41765,3.7793 -2.83326,6.73061 -5.56948,11.61142 -1.78556,3.18508 -2.10468,3.65527 -2.50862,3.69624 -0.3866,0.0392 -0.55428,-0.0973 -1.01819,-0.82925 z m 0.0647,-18.04478 c 0.0131,-5.70203 0.0718,-19.6233 0.13027,-30.93614 l 0.10628,-20.5688 -0.44426,-0.46628 -0.44426,-0.4663 -1.68671,4.30285 c -1.92689,4.91551 -2.7659,7.43157 -3.54614,10.63433 -1.0514,4.3159 -1.26429,6.1334 -1.48777,12.70167 -0.19538,5.74204 -0.0659,8.3724 0.74285,15.09484 0.57975,4.81876 0.95937,6.80438 1.8394,9.62089 1.111,3.55579 1.56682,4.76117 3.02743,8.00588 1.25883,2.79639 1.53209,3.28426 1.62601,2.90285 0.0621,-0.25215 0.1237,-5.12375 0.1369,-10.82579 z m 4.34256,7.04979 c 1.28891,-2.67266 2.9752,-7.21454 3.72599,-10.03558 0.25493,-0.95794 0.63366,-2.93603 0.84159,-4.39575 0.20794,-1.45972 0.49816,-3.36317 0.6449,-4.22988 0.66566,-3.93142 0.88244,-7.85784 0.78299,-14.18252 -0.0531,-3.3756 -0.18944,-6.73462 -0.30305,-7.46448 -0.37699,-2.42189 -1.12932,-5.77438 -1.86126,-8.29387 -0.61802,-2.12736 -3.60877,-10.67012 -3.79347,-10.8356 -0.12244,-0.10972 -0.82902,0.31431 -0.99393,0.59647 -0.17396,0.29768 -0.51254,61.56238 -0.33939,61.41231 0.0526,-0.0456 0.63568,-1.20261 1.29563,-2.5711 z m 33.82303,-21.90333 c -0.861,-6.09548 -1.43331,-9.57378 -1.85482,-11.27301 -0.0906,-0.3654 -0.46157,-2.21933 -0.82427,-4.11985 -0.76705,-4.01918 -2.06714,-8.80481 -2.995,-11.02456 -0.35752,-0.85528 -1.15278,-2.50011 -1.76724,-3.65518 -1.27864,-2.40355 -1.63178,-3.22205 -1.63178,-3.78209 0,-0.22579 -0.37283,-0.80537 -0.86689,-1.34762 -0.47677,-0.52331 -1.40589,-1.6979 -2.06471,-2.61023 -0.65882,-0.91233 -1.88437,-2.59183 -2.72344,-3.73224 -3.00656,-4.08624 -5.50759,-8.15686 -6.77749,-11.03085 -0.83558,-1.89105 -1.0905,-2.12635 -0.71881,-0.66351 0.0927,0.36493 0.42185,2.45499 0.73139,4.64457 0.81527,5.76668 1.4959,8.61335 3.25216,13.60195 0.54603,1.55095 1.38011,4.01423 1.85355,5.47395 2.9002,8.94227 4.12437,11.94233 7.05271,17.28421 1.06021,1.93402 1.92765,3.55222 1.92765,3.59601 0,0.19685 3.13823,6.25744 4.51993,8.7289 0.84156,1.50534 2.02162,3.70577 2.62235,4.88984 0.60073,1.18408 1.11667,2.03911 1.14655,1.90007 0.0299,-0.13904 -0.36694,-3.2352 -0.88184,-6.88036 z m -69.167,-3.31004 c 0.83121,-1.45972 2.27775,-4.07229 3.21452,-5.80571 0.93677,-1.73341 2.32669,-4.23402 3.08873,-5.55689 1.94379,-3.37439 3.63456,-7.29688 6.00602,-13.9337 1.12467,-3.14753 2.38543,-6.57646 2.80166,-7.61985 1.42939,-3.58303 2.43722,-7.46057 3.32999,-12.81187 0.29944,-1.79486 0.67052,-3.80523 0.82464,-4.46748 0.15409,-0.66225 0.25036,-1.23081 0.21391,-1.26345 -0.0365,-0.0327 -0.41294,0.71348 -0.83665,1.65812 -0.8177,1.82305 -1.93882,3.70184 -3.98167,6.6727 -2.31457,3.36601 -6.79361,9.22295 -8.05516,10.53322 -0.59153,0.61439 -0.91561,1.12057 -0.99235,1.54999 -0.0627,0.35072 -0.94167,2.17952 -1.95338,4.064 -1.01168,1.88448 -2.05312,4.02349 -2.3143,4.75335 -0.90944,2.54149 -1.97977,6.30324 -2.61668,9.19653 -0.35264,1.60189 -0.96951,4.3681 -1.37083,6.14713 -0.40131,1.77904 -0.90955,4.31696 -1.12939,5.63983 -0.21985,1.32288 -0.68516,4.08474 -1.03403,6.13747 -0.34887,2.05273 -0.67735,3.9935 -0.72995,4.31281 -0.091,0.55252 1.21316,-1.61667 5.53492,-9.2062 z m 63.53961,4.54536 c -1.26423,-2.31747 -3.0065,-5.63185 -3.87169,-7.36527 -0.8652,-1.73342 -2.32306,-4.5326 -3.23969,-6.22041 -2.52451,-4.64848 -3.52844,-7.16544 -6.51698,-16.33892 -0.62417,-1.91589 -1.4974,-4.49113 -1.94053,-5.72277 -1.73486,-4.82194 -2.65802,-8.78685 -3.24585,-13.94077 -0.21286,-1.86639 -0.43064,-3.50539 -0.48395,-3.64224 -0.0533,-0.13685 -0.37079,0.46031 -0.70553,1.32702 -1.25311,3.24463 -2.59623,5.854 -4.35354,8.45787 -1.03585,1.53487 -1.06386,1.74462 -0.46546,3.4853 0.14114,0.41055 0.47382,1.62763 0.73931,2.70462 0.60177,2.44108 3.11065,9.12002 4.35912,11.60444 2.02524,4.03025 8.36573,14.31999 11.42097,18.53467 1.42601,1.96719 4.39897,5.47014 5.98317,7.0498 3.07209,3.06325 4.47789,4.40694 4.54643,4.34554 0.0401,-0.0359 -0.96154,-1.96139 -2.22578,-4.27888 z m -59.90723,-0.85528 c 4.11729,-3.9906 6.32227,-6.85591 13.37086,-17.37496 3.95686,-5.90504 7.86991,-13.97747 9.28713,-19.15885 0.27451,-1.00355 0.6297,-2.18734 0.78934,-2.63061 0.15963,-0.44328 0.39591,-1.26437 0.52503,-1.82465 0.22887,-0.9929 0.22117,-1.04294 -0.3041,-1.97638 -0.87977,-1.56342 -2.17102,-4.69951 -2.77858,-6.74849 -0.45531,-1.53552 -1.63023,-5.30546 -1.88627,-6.05254 -0.0848,-0.24752 -0.84249,3.81603 -1.24487,6.67667 -0.75237,5.34865 -1.45749,7.94561 -4.15239,15.29298 -1.15445,3.14753 -2.69138,7.34567 -3.41538,9.32921 -1.82903,5.01098 -3.42383,8.4142 -5.80618,12.39015 -0.51583,0.86091 -1.82242,3.21222 -2.90353,5.22514 -1.08111,2.01294 -2.83558,5.15278 -3.8988,6.97744 -2.69697,4.62836 -2.6635,4.53152 -1.08954,3.15167 0.72847,-0.63863 2.30675,-2.11318 3.50728,-3.27678 z m 103.66828,-13.16289 c -23.02304,-10.95706 -42.65629,-31.4943 -53.19746,-55.64683 -1.40985,-3.23035 -3.17913,-8.04691 -4.0168,-10.93515 -0.39185,-1.35104 -0.7424,-2.20737 -1.00613,-2.45779 l -0.40476,-0.38433 -0.11853,4.19951 c -0.15127,5.35961 -0.55371,9.51415 -1.35202,13.95739 -0.16108,0.89645 -0.25005,1.82951 -0.19774,2.07347 0.48535,2.26313 1.99885,5.90278 4.18519,10.06446 1.0601,2.01788 4.31743,6.91608 7.29188,10.96516 2.9699,4.04286 5.62111,6.93645 10.82513,11.81474 4.06599,3.81149 5.97411,5.31494 9.26138,7.29723 5.77408,3.48185 8.11887,4.58712 13.37406,6.30413 4.07721,1.33215 14.05882,3.47615 17.02192,3.65622 0.15273,0.009 -0.59702,-0.39941 -1.66612,-0.90821 z m -147.08159,-1.32579 c 7.83415,-1.14782 14.43421,-2.82798 19.35192,-4.92634 1.5706,-0.67016 5.90409,-2.97576 8.41679,-4.47808 3.42675,-2.04883 8.44602,-6.25721 13.79038,-11.5625 2.74527,-2.72522 3.01167,-3.02445 4.94717,-5.5569 0.90644,-1.18602 2.03017,-2.64159 2.49718,-3.23461 1.07191,-1.36112 5.01255,-7.07447 5.61868,-8.14625 2.36497,-4.18182 4.22481,-8.4135 5.18766,-11.80353 0.45263,-1.59356 0.46885,-1.78334 0.26577,-3.10718 -0.31231,-2.03573 -0.53933,-11.07366 -0.35626,-14.18252 0.086,-1.45972 0.21377,-3.61588 0.284,-4.79147 0.10741,-1.79791 0.0863,-2.12558 -0.13271,-2.06287 -0.25875,0.0741 -1.17838,2.21979 -1.83576,4.28324 -0.18892,0.59301 -0.46921,1.37678 -0.62287,1.74171 -0.15367,0.36494 -0.69895,1.90899 -1.21177,3.43123 -2.47012,7.33254 -6.78152,16.08107 -11.38854,23.10916 -11.7116,17.86626 -28.53384,32.55396 -46.52404,40.62068 -1.3491,0.60492 -2.4529,1.13196 -2.4529,1.17119 0,0.0886 0.65974,0.009 4.1653,-0.50496 z m 147.5444,-1.93576 c -2.25928,-1.75373 -4.07746,-3.41506 -6.21412,-5.67803 -1.20595,-1.27726 -3.53399,-3.70321 -5.1734,-5.39102 -3.33661,-3.4351 -5.61389,-6.08383 -8.69953,-10.11852 -1.15123,-1.50534 -2.56694,-3.29681 -3.14599,-3.98106 -1.39399,-1.64723 -4.62373,-5.95261 -6.09732,-8.12799 -2.63614,-3.89157 -7.40407,-12.69453 -8.5341,-15.75638 -0.69953,-1.89543 -1.53313,-5.19946 -1.77281,-7.0267 l -0.12493,-0.95235 -2.33386,-1.70692 c -5.49091,-4.01589 -9.69543,-7.89714 -13.22043,-12.20401 -0.71287,-0.87101 -1.3731,-1.6583 -1.46715,-1.74953 -0.21496,-0.20851 -0.0978,0.41806 0.71355,3.81518 6.7218,28.14484 28.20362,55.14446 54.49002,68.48628 1.37097,0.69585 2.53726,1.26249 2.59174,1.25922 0.0545,-0.003 -0.40076,-0.39396 -1.01167,-0.86817 z m -146.30136,-3.2078 c 15.85153,-8.14513 30.68348,-21.74343 41.05065,-37.63624 1.99766,-3.06243 5.98271,-10.27443 7.51586,-13.60195 2.19795,-4.77041 5.96218,-15.50954 5.43635,-15.50954 -0.0942,0 -0.17129,0.0587 -0.17129,0.13038 0,0.22894 -5.02559,4.60409 -6.84962,5.96311 -2.51205,1.87163 -5.53838,3.94843 -7.68267,5.2722 -1.01819,0.62857 -1.90635,1.21462 -1.97368,1.30232 -0.0673,0.0877 -0.17823,0.49297 -0.24645,0.90063 -0.24525,1.46541 -1.39953,5.37952 -2.05307,6.96186 -0.73545,1.78061 -4.85719,9.10582 -7.05114,12.53129 -1.70363,2.65998 -4.15907,5.92038 -7.05479,9.36763 -1.19335,1.42062 -3.24209,3.89449 -4.55276,5.49748 -4.10508,5.02064 -5.56805,6.55949 -15.44912,16.25034 -0.87401,0.85718 -2.46762,2.2286 -3.54134,3.0476 -1.0737,0.81901 -2.07717,1.59929 -2.2299,1.73397 -0.3942,0.34763 1.96728,-0.7283 4.85297,-2.21108 z m 70.97626,-52.17303 0.49749,-26.64585 -0.43738,-0.55805 c -0.24057,-0.30694 -1.06954,-1.11789 -1.84217,-1.80214 -1.67599,-1.48425 -2.32682,-2.30875 -3.73008,-4.72546 -0.59392,-1.02284 -1.09548,-1.71431 -1.14304,-1.57584 -0.0466,0.13574 -0.22313,1.44109 -0.39229,2.90081 -0.16917,1.45973 -0.50869,4.10962 -0.75452,5.88865 -1.29341,9.36081 -1.74589,15.07209 -1.74978,22.08559 -0.003,5.64026 0.11634,7.11325 0.93966,11.58753 1.05258,5.72015 1.60179,7.84628 3.89125,15.06393 0.72341,2.2806 1.99712,5.0855 3.07832,6.77889 l 0.88138,1.38042 0.13183,-1.86632 c 0.0725,-1.02648 0.3557,-13.85695 0.62933,-28.51216 z m 3.6666,28.51196 c 3.33795,-4.59255 6.17785,-11.75026 7.71667,-19.44913 0.21883,-1.09479 0.5166,-2.51304 0.66174,-3.15167 0.14514,-0.63863 0.33615,-1.98224 0.42449,-2.98579 0.0883,-1.00356 0.26577,-2.86968 0.39432,-4.14694 0.12979,-1.28973 0.23314,-4.68239 0.23244,-7.63036 -0.002,-5.24239 -0.19423,-8.29631 -0.73898,-11.69436 -0.15358,-0.95794 -0.34563,-2.2269 -0.42679,-2.81992 -0.18644,-1.3624 -0.49395,-2.84662 -0.96231,-4.64456 -0.20201,-0.77548 -0.6029,-2.66454 -0.89088,-4.19793 -0.47582,-2.5336 -0.63868,-3.12347 -0.80642,-2.92099 -0.0315,0.038 -0.59381,0.92072 -1.24959,1.96157 -0.80855,1.2833 -1.7242,2.42641 -2.8447,3.55134 l -1.65239,1.6589 -0.51381,25.56014 c -0.52307,26.01987 -0.60745,32.27819 -0.43516,32.27819 0.0532,0 0.54431,-0.61582 1.09137,-1.36849 z m 54.8029,-23.49047 c -0.0967,-0.0788 -0.96728,-0.69013 -1.93456,-1.35858 -3.62507,-2.50517 -7.18465,-5.32337 -8.92447,-7.06573 -3.94917,-3.95497 -12.48235,-14.73627 -15.14415,-19.134 -0.57981,-0.95794 -1.32751,-2.15226 -1.66155,-2.65404 -1.84878,-2.77715 -4.97272,-8.91921 -7.00251,-13.76782 -2.5731,-6.14643 -5.86993,-16.5419 -7.83838,-24.71574 l -0.61919,-2.5711 -0.12718,1.0782 c -0.0699,0.59301 -0.22081,3.54149 -0.33526,6.55216 -0.21295,5.60198 -0.35311,6.98535 -1.17647,11.61142 -0.4965,2.78963 -0.97194,4.44479 -2.02504,7.04987 -0.56509,1.3979 -0.62109,1.68122 -0.49584,2.50829 0.0777,0.51279 0.32503,1.29653 0.54969,1.74163 0.46985,0.93085 1.46442,3.44089 1.59419,4.02337 0.10022,0.44984 0.58969,1.35263 3.06885,5.66034 2.08709,3.62649 3.39483,5.59284 5.29527,7.96211 8.60111,10.72302 21.67657,19.34793 34.47179,22.7385 1.80238,0.47761 2.62122,0.5988 2.30481,0.34112 z M 294.01221,350.7365 c 1.51261,-0.44485 3.79152,-1.21988 5.06425,-1.72226 1.27273,-0.50239 3.06381,-1.19632 3.98018,-1.54206 2.15656,-0.81368 8.90859,-3.9726 9.59105,-4.48717 0.28967,-0.21838 0.62961,-0.39706 0.75542,-0.39706 0.27058,0 2.7131,-1.4771 4.92632,-2.97919 4.42759,-3.00494 9.05175,-6.77989 11.2853,-9.2128 1.8496,-2.0147 3.55169,-4.53059 4.93146,-7.2893 2.13075,-4.26018 4.02522,-9.42622 4.31975,-11.77947 0.0991,-0.79188 0.36155,-1.62669 0.74687,-2.37573 l 0.59407,-1.15484 -0.5561,-1.55583 c -0.72563,-2.03017 -1.26627,-3.98535 -1.41637,-5.1222 -0.0663,-0.50177 -0.28346,-1.98658 -0.48268,-3.29955 -0.42784,-2.81978 -0.71328,-8.03366 -0.73657,-13.45407 l -0.0167,-3.89811 -1.261,4.39575 c -1.41657,4.93808 -3.87051,12.36682 -5.55192,16.8072 -2.48702,6.5678 -6.46852,14.50359 -9.66862,19.27114 -0.85733,1.27725 -1.94602,2.91944 -2.41931,3.6493 -2.62027,4.04081 -11.6844,14.81508 -15.40774,18.31476 -1.51452,1.42354 -6.18992,4.86946 -9.76877,7.19989 -1.09455,0.71274 -1.99009,1.32841 -1.99009,1.36816 0,0.14788 0.39507,0.0534 3.08123,-0.73656 z m 117.12998,0.26973 c -0.078,-0.11404 -1.06227,-1.36434 -2.18736,-2.77845 -4.86252,-6.11155 -7.99904,-11.19604 -13.16772,-21.34568 -4.36337,-8.5683 -5.59521,-11.57896 -6.82782,-16.68734 -0.54782,-2.27033 -1.20809,-6.60579 -1.20809,-7.93257 0,-0.93635 -0.036,-1.0098 -0.92562,-1.89004 -0.5091,-0.50371 -0.92563,-1.01635 -0.92563,-1.1392 0,-0.12285 -0.74066,-0.80154 -1.6459,-1.50819 -4.34945,-3.3953 -9.15379,-9.09426 -13.43001,-15.93089 -1.32527,-2.11878 -4.19603,-7.32037 -4.92878,-8.93054 -0.24238,-0.53265 -0.46814,-0.89467 -0.50167,-0.80454 -0.17622,0.47368 2.17444,11.32961 3.39926,15.69869 1.54158,5.49894 3.84329,12.69128 5.23139,16.34691 1.93257,5.08955 5.16237,11.82963 7.33731,15.31184 0.52377,0.8386 1.59494,2.55497 2.38035,3.81416 2.9845,4.78478 11.05002,14.9526 14.91324,18.80043 1.37386,1.36839 6.14255,5.10536 8.44159,6.61524 0.40728,0.26748 1.15703,0.79654 1.66613,1.17569 1.42931,1.06452 2.74495,1.71947 2.37933,1.18448 z m -113.82442,-7.37677 c 2.44841,-1.75359 4.05233,-3.28727 7.50766,-7.17897 5.95758,-6.70994 8.77053,-10.30396 12.52841,-16.00718 3.77605,-5.7308 7.62333,-13.33415 10.11399,-19.98823 1.73936,-4.64687 4.34073,-12.64704 5.58253,-17.16831 1.06767,-3.88724 2.68187,-10.73104 2.68003,-11.3626 0,-0.13685 -0.86175,1.2814 -1.91411,3.15167 -3.19925,5.68575 -6.84717,10.94829 -10.51968,15.17581 -1.64672,1.89558 -5.67555,5.70316 -7.30468,6.90355 l -0.76396,0.56291 -0.20891,1.90759 c -0.48183,4.3998 -2.16405,10.4774 -4.39318,15.87175 -0.67169,1.62543 -1.70788,4.23621 -2.30267,5.80169 -1.54859,4.07599 -2.70325,6.58779 -5.01292,10.90487 -2.79288,5.22026 -4.85699,8.43926 -8.25388,12.8721 -0.31153,0.40655 -0.31062,0.40944 0.0462,0.14697 0.20018,-0.14725 1.19702,-0.86439 2.2152,-1.59362 z m 145.36399,-27.68599 c 1.44806,-0.15093 2.5886,-0.33853 2.53454,-0.41691 -0.0541,-0.0784 -0.37951,-0.14251 -0.72319,-0.14251 -0.96045,0 -3.01065,-0.4267 -5.50881,-1.14653 -1.24719,-0.35937 -3.14233,-0.89077 -4.21142,-1.18091 -2.18775,-0.59369 -7.39846,-2.38815 -8.85467,-3.04934 -1.22121,-0.5545 -7.67354,-4.04608 -9.38793,-5.08013 -2.52336,-1.52201 -5.75262,-3.76465 -7.76868,-5.39518 -1.12071,-0.90639 -3.14079,-2.53243 -4.48911,-3.61342 -4.52397,-3.62708 -7.77291,-7.06441 -10.69025,-11.31014 l -1.51652,-2.20707 -0.12119,2.63417 c -0.22835,4.96302 -1.00132,8.62571 -2.3265,11.02383 -0.40331,0.72986 -0.7808,1.59236 -0.83885,1.91665 -0.091,0.50845 -0.0256,0.65691 0.47536,1.0782 0.31951,0.26873 1.14244,1.16038 1.82874,1.98148 2.92132,3.4951 6.80659,6.20965 12.59796,8.80188 11.35438,5.08227 26.32858,7.42663 39.00052,6.10593 z m -88.76993,-3.21185 c 3.39541,-5.54254 4.58193,-8.39953 5.43948,-13.09755 0.82632,-4.52681 0.98562,-6.23684 1.2911,-13.85914 0.24079,-6.00818 0.2596,-8.20882 0.0964,-11.27966 -0.19179,-3.60936 -0.58998,-8.58303 -0.68039,-8.4986 -0.0992,0.0926 -0.82434,4.37731 -1.08737,6.42513 -0.75599,5.88555 -1.10823,7.448 -2.58166,11.45158 -1.26323,3.43244 -3.02197,6.99777 -3.9197,7.94611 l -0.54015,0.5706 -0.11832,5.6498 c -0.0651,3.10738 -0.17799,8.37099 -0.25091,11.69688 l -0.13261,6.0471 0.8605,-0.90329 c 0.47327,-0.4968 1.20388,-1.46383 1.6236,-2.14896 z m -5.221,-8.71017 0.23027,-11.44554 -0.6247,-0.59298 c -0.3684,-0.34967 -1.02085,-1.40457 -1.59024,-2.5711 -1.25579,-2.57279 -1.21923,-2.48164 -2.39137,-5.95918 -1.11304,-3.30222 -1.57711,-5.56713 -2.00527,-9.78677 -0.28353,-2.79439 -0.74055,-6.26292 -0.97259,-7.38154 -0.10892,-0.52512 -0.13356,-0.47758 -0.25806,0.49763 -0.89734,7.02929 -1.08964,11.34615 -0.90524,20.31998 0.13236,6.44195 0.23263,8.38967 0.52516,10.20146 0.19884,1.23164 0.4182,2.68722 0.48745,3.23461 0.15782,1.24755 0.63618,2.96095 1.482,5.30808 0.80672,2.23867 3.98431,7.97353 4.97998,8.98782 0.39438,0.40172 0.73849,0.70851 0.76468,0.68174 0.0262,-0.0268 0.15128,-5.19916 0.27793,-11.49421 z m -72.75496,10.36044 c 6.95275,-0.43903 13.31872,-1.68855 18.98852,-3.72712 7.87095,-2.82998 13.65978,-7.06523 16.30536,-11.92936 0.88029,-1.61846 0.95226,-1.9357 0.51331,-2.26212 -0.42012,-0.31243 -1.11709,-1.60663 -1.64377,-3.05237 -0.70063,-1.92314 -1.05712,-4.4675 -1.18606,-8.46537 l -0.11772,-3.64931 -0.34854,0.58057 c -1.50099,2.50026 -4.87979,6.47257 -7.66977,9.01705 -2.78216,2.53733 -8.88171,7.30244 -12.37044,9.66407 -3.60669,2.4415 -12.5658,7.22237 -15.52088,8.28246 -2.65857,0.95373 -5.69595,1.88092 -8.05749,2.45966 -1.27274,0.3119 -3.34217,0.83589 -4.59874,1.16441 -1.25657,0.32852 -2.43876,0.59731 -2.62711,0.59731 -0.82402,0 -0.43413,0.29309 0.61558,0.46275 5.54998,0.89695 12.08376,1.21313 17.71775,0.85737 z m 168.6332,-1.54857 c -0.0424,-0.0344 -1.21757,-0.66896 -2.61141,-1.4101 -7.0877,-3.76877 -15.42876,-9.3648 -22.25878,-14.93345 -4.9776,-4.05831 -11.35715,-10.10169 -15.86366,-15.02765 -4.57154,-4.99709 -9.90063,-12.0785 -13.20083,-17.54154 -0.48225,-0.79828 -0.89569,-1.45143 -0.9188,-1.45143 -0.0231,0 0.1522,0.98905 0.38956,2.19788 0.49775,2.53504 1.26864,7.81596 1.45892,9.99412 0.11757,1.34597 0.18901,1.55818 0.7258,2.1564 0.32746,0.36493 0.89857,1.27105 1.26915,2.01362 2.55499,5.11967 6.69719,10.14616 11.80519,14.32531 6.6459,5.43739 8.85016,7.08033 12.37867,9.22638 2.46437,1.4988 9.05492,5.04364 10.27295,5.52545 3.74053,1.47962 14.93726,4.88001 16.36811,4.97091 0.14423,0.009 0.22754,-0.0114 0.18513,-0.0459 z m -184.31463,-3.0782 c 1.24294,-0.35894 3.16765,-0.88683 4.27714,-1.1731 2.52697,-0.652 7.25213,-2.20277 8.71998,-2.86184 1.90973,-0.85745 7.49524,-3.76588 9.69359,-5.04753 2.56905,-1.49777 4.55953,-2.83378 6.87507,-4.61463 0.96728,-0.74389 2.5501,-1.93947 3.51737,-2.65682 2.72424,-2.02036 6.34067,-5.26837 8.30662,-7.46039 2.21078,-2.46502 3.66484,-4.47073 5.41374,-7.4677 0.74431,-1.27548 1.54669,-2.49292 1.78306,-2.70541 0.37258,-0.33494 0.47785,-0.73229 0.79098,-2.9858 0.58131,-4.18328 1.53513,-9.05102 2.4677,-12.59356 0.1501,-0.5702 0.24029,-1.03673 0.20043,-1.03673 -0.0399,0 -0.74157,0.89484 -1.55932,1.98853 -1.69054,2.26101 -3.45026,4.36344 -6.94359,8.29587 -1.33724,1.50533 -3.53142,4.02972 -4.87592,5.60974 -2.42865,2.85407 -7.2018,8.06547 -8.99647,9.82251 -0.51572,0.5049 -1.30639,1.28867 -1.75707,1.74172 -1.51677,1.52474 -16.37804,14.88786 -18.341,16.49204 -3.20923,2.62268 -4.85069,3.62527 -11.10748,6.78431 -0.56,0.28275 -0.95215,0.51573 -0.87145,0.51773 0.0807,0.002 1.16367,-0.29 2.40662,-0.64894 z m 124.62859,-17.62635 c -0.63065,-3.08086 -1.79725,-7.91237 -2.60689,-10.79638 -0.67784,-2.41455 -2.57872,-7.68865 -2.89765,-8.03973 -0.1036,-0.11404 -0.35496,-0.20735 -0.55856,-0.20735 -0.21054,0 -1.01917,-0.5601 -1.87487,-1.29865 -0.82756,-0.71427 -2.50433,-2.05066 -3.72615,-2.96977 -3.58194,-2.69447 -6.59631,-5.60379 -8.45842,-8.16365 -0.69335,-0.95313 -1.26063,-1.66763 -1.26063,-1.58777 0,0.33754 1.42059,4.1947 2.52127,6.84566 3.5183,8.47385 8.4839,17.00107 13.28975,22.82203 2.31128,2.79946 5.85311,6.31872 5.98971,5.95153 0.0375,-0.10074 -0.15043,-1.2509 -0.41756,-2.55592 z m -70.28658,-1.54576 c 1.43249,-3.25641 2.29802,-5.66711 4.37659,-12.18962 2.15342,-6.75748 2.02778,-6.25348 1.60899,-6.45431 -0.83619,-0.40099 -1.95348,-4.03736 -2.71454,-8.83495 -0.32539,-2.05115 -0.36621,-7.36444 -0.075,-9.76288 0.11194,-0.92203 0.1697,-1.70673 0.12836,-1.74379 -0.12751,-0.11425 -1.75768,4.98318 -2.62803,8.21766 -1.36435,5.07037 -2.35038,10.1181 -3.01342,15.4266 -0.46022,3.68457 -0.47163,12.72006 -0.0187,14.84603 0.42944,2.0159 0.87525,3.30995 1.0778,3.12846 0.0905,-0.0811 0.65658,-1.26601 1.258,-2.6332 z m 6.30821,-1.98816 c 5.49095,-6.25245 10.94656,-15.06768 14.73156,-23.80341 1.14015,-2.63146 2.35938,-5.82251 2.25902,-5.91244 -0.0387,-0.0347 -0.47212,0.47894 -0.96307,1.14147 -0.49095,0.66253 -1.33046,1.6898 -1.86556,2.28281 -1.33195,1.47606 -5.0564,4.605 -7.86619,6.60847 -2.85758,2.03754 -3.42495,2.59628 -3.59279,3.5381 -0.29651,1.66407 -2.76295,10.01679 -4.0946,13.86659 -0.45015,1.30137 -1.15964,3.13017 -1.57667,4.064 -0.41704,0.9338 -0.79693,1.8098 -0.84423,1.94665 -0.13442,0.38897 2.20134,-1.8976 3.81253,-3.73224 z m 67.67967,0.96056 c 1.13774,-6.83108 0.0186,-19.34106 -2.69084,-30.07764 -0.5963,-2.36297 -1.97115,-7.11262 -2.09507,-7.23773 -0.015,-0.0153 0.002,1.94612 0.0389,4.35853 0.0401,2.65165 -0.0178,5.02406 -0.14602,5.99916 -0.23271,1.76797 -1.10766,5.57628 -1.71113,7.44789 l -0.38376,1.19019 1.39317,3.45438 c 1.53504,3.80614 2.39372,6.45058 3.35692,10.33829 0.5265,2.12506 1.54565,6.62644 1.60578,7.09234 0.0417,0.32348 0.37876,-1.04444 0.63208,-2.56541 z m -39.06077,-24.76397 c 0.25473,-12.08832 0.46294,-22.39695 0.46268,-22.90809 v -0.92931 l -1.53267,-0.10556 c -0.84298,-0.0581 -1.90513,-0.151 -2.36034,-0.20652 l -0.82767,-0.10094 -0.0558,3.37518 c -0.0307,1.85635 -0.13644,4.00965 -0.23498,4.78513 -0.36966,2.90844 -0.72685,6.79683 -0.83813,9.12326 -0.12074,2.52447 0.17666,8.61876 0.48973,10.03558 0.1008,0.45616 0.26713,1.72513 0.36962,2.81992 0.27046,2.88887 0.70421,6.25872 1.01507,7.88603 0.3442,1.80189 1.78096,6.52143 2.44704,8.0382 0.4422,1.00693 0.51609,1.09506 0.55635,0.66351 0.0255,-0.2737 0.25483,-10.38807 0.50956,-22.47639 z m 4.20994,17.91476 c 1.15512,-3.45647 1.80898,-6.61418 2.36994,-11.44554 0.11123,-0.95794 0.36163,-2.56281 0.55645,-3.56637 0.60055,-3.09364 0.84287,-8.72472 0.56517,-13.13265 -0.13124,-2.08277 -0.31153,-4.42133 -0.40067,-5.1968 -0.0891,-0.77548 -0.17066,-2.949 -0.18118,-4.83005 l -0.0191,-3.4201 -1.76396,-0.11601 c -0.97017,-0.0638 -1.78527,-0.0923 -1.81134,-0.0633 -0.0261,0.029 -0.22628,9.01006 -0.44489,19.95797 -0.21861,10.94791 -0.43924,21.32354 -0.49028,23.05696 l -0.0928,3.15167 0.34356,-0.66351 c 0.18895,-0.36493 0.80505,-2.04444 1.36911,-3.73224 z m 26.52654,-17.25125 c 1.00258,-4.71552 0.79059,-13.31959 -0.46389,-18.82709 -0.59175,-2.59801 -0.91157,-3.41168 -2.28161,-5.80493 -0.95785,-1.67324 -2.19945,-2.98185 -3.32648,-3.50604 -0.47292,-0.21995 -0.57635,-0.20421 -1.35928,0.20692 -0.46609,0.24475 -1.317,0.61599 -1.8909,0.82499 -0.93098,0.33904 -1.05227,0.43921 -1.12501,0.92905 -0.27729,1.86758 0.1439,5.28966 1.1905,9.67229 0.72547,3.03797 1.18197,4.46055 2.37182,7.39154 2.09706,5.16573 5.90006,12.30302 6.24813,11.7262 0.0689,-0.11424 0.35544,-1.29006 0.63672,-2.61293 z m -54.06281,0.73328 c 2.13827,-1.52407 6.14794,-5.11741 7.43085,-6.65929 1.54322,-1.85472 2.92349,-4.05452 4.24382,-6.76362 1.52082,-3.12045 1.85858,-4.10883 2.21533,-6.48263 0.3642,-2.42341 0.29478,-3.51226 -0.34816,-5.46054 l -0.43793,-1.32702 -1.46103,-0.37958 c -3.56248,-0.92556 -3.16817,-0.87674 -3.49302,-0.43251 -0.34043,0.46554 -0.60306,1.61593 -1.39731,6.12017 -1.0869,6.16414 -3.16537,12.18743 -6.23911,18.08064 -1.60777,3.08253 -2.13574,4.23024 -1.94545,4.22894 0.0749,0 0.71928,-0.41656 1.43201,-0.92456 z m -3.5443,-1.81149 c 0.45024,-0.91232 1.29796,-2.59183 1.88384,-3.73224 2.23042,-4.34159 4.45242,-10.80499 5.55998,-16.17305 0.7248,-3.51288 1.35325,-6.30478 1.49224,-6.6293 0.0606,-0.14156 -0.14703,-0.25275 -0.61369,-0.32861 -0.38793,-0.0631 -1.14961,-0.29486 -1.69261,-0.5151 -1.19939,-0.48645 -1.47041,-0.39893 -3.03385,0.97974 -0.837,0.73811 -1.27765,1.3593 -2.33166,3.287 -1.65344,3.02404 -2.10376,4.58191 -2.8402,9.82571 -0.54631,3.88998 -0.59664,10.78101 -0.0976,13.36879 0.41872,2.17149 0.48357,2.34933 0.69566,1.90759 0.0876,-0.18246 0.52767,-1.0782 0.97793,-1.99053 z m 51.24485,0.14195 c -4.44618,-8.72852 -6.27071,-14.64006 -6.88125,-22.29544 -0.1041,-1.30517 -0.21684,-2.39776 -0.25053,-2.42795 -0.0337,-0.0302 -0.40054,0.0524 -0.8152,0.18345 -0.41468,0.13109 -1.1566,0.28599 -1.64872,0.34421 -1.84075,0.21775 -1.82335,0.20932 -2.15905,1.04581 -0.55192,1.37524 -0.67845,2.58855 -0.47642,4.56851 0.25767,2.52553 0.56402,3.62062 1.77088,6.33041 2.38215,5.34865 4.1592,7.84007 8.28587,11.61673 1.58063,1.44657 2.92288,2.58623 2.98279,2.53257 0.0599,-0.0537 -0.30389,-0.9079 -0.80837,-1.8983 z m 5.49583,-28.57144 c -0.33154,-1.01372 -0.70029,-1.84314 -0.81947,-1.84314 -0.31606,0 -1.88566,1.31216 -1.57924,1.32022 0.38195,0.0101 1.77871,1.0837 2.37187,1.82316 0.28415,0.35423 0.54205,0.62131 0.57313,0.59348 0.0311,-0.0278 -0.21475,-0.88 -0.54629,-1.89372 z m -55.09189,-0.69428 0.71838,-0.46627 -0.78673,-0.51065 c -0.43271,-0.28087 -0.84478,-0.4531 -0.91572,-0.38277 -0.10359,0.10272 -0.68596,1.60205 -1.24161,3.19663 -0.0477,0.13685 0.27197,-0.11557 0.71031,-0.56092 0.43835,-0.44536 1.12028,-1.01956 1.51537,-1.27602 z"
       id="path916" />
  </g>
</svg>
